<?xml version="1.0" standalone="no"?><!DOCTYPE svg PUBLIC "-//W3C//DTD SVG 1.1//EN" "http://www.w3.org/Graphics/SVG/1.1/DTD/svg11.dtd"><svg t="1608645935683" class="icon" viewBox="0 0 1024 1024" version="1.1" xmlns="http://www.w3.org/2000/svg" p-id="3505" xmlns:xlink="http://www.w3.org/1999/xlink" width="200" height="200"><defs><style type="text/css"></style></defs><path d="M412.032 902.144c-8.192 0-16.384-3.328-22.272-9.984-77.44-86.656-202.496-87.552-205.184-87.552h-0.128c-16.384 0-29.696-13.184-29.824-29.568-0.128-16.384 13.056-29.824 29.44-29.952 6.144-0.384 153.984-0.128 250.112 107.392 11.008 12.288 9.856 31.104-2.432 41.984-5.504 5.12-12.672 7.68-19.712 7.68z m199.552-0.128c-7.296 0-14.464-2.56-20.224-7.936-12.032-11.136-12.8-29.952-1.664-41.984C689.152 744.704 833.92 744.832 839.68 745.088c16.512 0.128 29.696 13.568 29.44 30.08-0.128 16.384-13.44 29.44-29.696 29.44h-0.256c-2.432 0-125.056 0.768-205.824 87.936-5.76 6.272-13.824 9.472-21.76 9.472z m-52.48-151.296h-94.336c-2.944 0-5.888-0.384-8.704-1.28-100.608-12.928-186.24-71.296-241.28-164.992-64-108.8-78.72-249.728-36.48-350.72 4.608-10.88 15.104-18.048 26.88-18.304l8.96-0.128c56.704 0 109.568 10.752 157.824 31.872 34.816-63.616 74.496-111.872 118.4-143.872 2.304-2.048 4.992-3.712 7.936-4.992 9.216-3.968 19.84-3.072 28.288 2.304 1.408 0.896 2.816 2.048 4.096 3.2 43.904 32.256 82.56 79.872 117.632 144.768 49.152-22.144 103.296-33.408 161.408-33.408l9.088 0.128c11.776 0.256 22.272 7.424 26.88 18.304 42.24 100.992 27.52 241.92-36.48 350.72-55.168 93.568-140.672 152.064-241.28 164.992-2.816 0.896-5.76 1.408-8.832 1.408zM511.744 928c-16.384 0-29.696-13.312-29.696-29.696V720.896c0-16.512 13.312-29.696 29.696-29.696s29.696 13.312 29.696 29.696v177.28c0 16.512-13.312 29.824-29.696 29.824z m0 0" fill="#ffffff" p-id="3506"></path></svg>